# xmcd
#
# Track frame offsets: 
#        150
#        18211
#        30059
#        45793
#        64614
#        82794
#        101162
#        117691
#        151133
#        161072
#        178295
#        201268
#        215061
#        246228
#
# Disc length: 3516 seconds
#
# Revision: 1
# Processed by: cddbd v1.5.1PL0 Copyright (c) Steve Scherf et al.
# Submitted via: ExactAudioCopy v0.95a5
#
DISCID=b10dba0e
DTITLE=Al Stewart - Live At The Brook
DYEAR=1998
DGENRE=Acoustic
TTITLE0=Flying Sorcery
TTITLE1=Antarctica
TTITLE2=Timeless Skies
TTITLE3=Broadway Hotel
TTITLE4=Not The One
TTITLE5=On The Border
TTITLE6=Clifton in the Rain-A Small Fruit Song
TTITLE7=Roads to Moscow
TTITLE8=End of The Day
TTITLE9=Soho (Needless to Say)
TTITLE10=The Candidate
TTITLE11=Genie on a Table Top
TTITLE12=Apple Cidar Reconstitution
TTITLE13=Optical Illusion
EXTD=
EXTT0=
EXTT1=
EXTT2=
EXTT3=
EXTT4=
EXTT5=
EXTT6=
EXTT7=
EXTT8=
EXTT9=
EXTT10=
EXTT11=
EXTT12=
EXTT13=
PLAYORDER=
